<svg xmlns="http://www.w3.org/2000/svg" viewBox="0 0 283.47 283.47"><defs><style>.cls-1{fill:#fff;}</style></defs><g id="Layer_2" data-name="Layer 2"><rect width="283.47" height="283.47"/><g id="Warstwa_1" data-name="Warstwa 1"><path class="cls-1" d="M57.8,260.07v-5.69h4.86a1.51,1.51,0,0,1,1,.26,1.09,1.09,0,0,1,.31.85v1.27a1,1,0,0,1-.31.83,1.46,1.46,0,0,1-1,.26H59.1v2.22Zm4.27-4.7h-3v1.5h3a.76.76,0,0,0,.47-.1.39.39,0,0,0,.13-.35v-.61a.39.39,0,0,0-.13-.34A.76.76,0,0,0,62.07,255.37Z"/><path class="cls-1" d="M66,260.07v-5.69h4.87a1.51,1.51,0,0,1,1,.26,1.08,1.08,0,0,1,.3.85v1.33a1.08,1.08,0,0,1-.3.84,1.51,1.51,0,0,1-1,.26h-.75l2.63,2.15h-1.9l-2.29-2.15H67.3v2.15Zm4.28-4.7h-3V257h3a.76.76,0,0,0,.47-.1.44.44,0,0,0,.13-.35v-.69a.41.41,0,0,0-.13-.34A.76.76,0,0,0,70.28,255.37Z"/><path class="cls-1" d="M74.61,255.73a1.45,1.45,0,0,1,.29-1.06,1.62,1.62,0,0,1,1.12-.29H80.2a1.6,1.6,0,0,1,1.12.29,1.45,1.45,0,0,1,.29,1.06v3a1.47,1.47,0,0,1-.29,1.07,1.61,1.61,0,0,1-1.12.28H76a1.63,1.63,0,0,1-1.12-.28,1.47,1.47,0,0,1-.29-1.07ZM75.93,259H80.3v-3.6H75.93Z"/><path class="cls-1" d="M84.07,260.07v-5.69h5.76v1H85.4v1.49h2.39v1H85.4v2.16Z"/><path class="cls-1" d="M91.67,260.07v-5.69h5.82v1H93v1.27h2.63v1H93V259h4.56v1.07Z"/><path class="cls-1" d="M104.83,255.38h-3.72v1.22h3.55a1.63,1.63,0,0,1,1.12.28,1.46,1.46,0,0,1,.3,1.06v.78a1.49,1.49,0,0,1-.3,1.07,1.68,1.68,0,0,1-1.12.28h-3.52a1.68,1.68,0,0,1-1.12-.28,1.49,1.49,0,0,1-.3-1.07v-.15l1.17-.24V259h4v-1.3h-3.55a1.64,1.64,0,0,1-1.12-.28,1.51,1.51,0,0,1-.29-1.06v-.63a1.49,1.49,0,0,1,.29-1.06,1.64,1.64,0,0,1,1.12-.29h3.23a1.65,1.65,0,0,1,1.11.28,1.26,1.26,0,0,1,.3,1v.12l-1.17.27Z"/><path class="cls-1" d="M109.6,260.07a1.6,1.6,0,0,1-1.11-.28,1.47,1.47,0,0,1-.3-1.07v-1.17l1.34-.26V259h2.6v-4.62h1.32v4.34a1.52,1.52,0,0,1-.29,1.07,1.64,1.64,0,0,1-1.12.28Z"/><path class="cls-1" d="M115.78,255.73a1.49,1.49,0,0,1,.29-1.06,1.64,1.64,0,0,1,1.12-.29h4.19a1.62,1.62,0,0,1,1.12.29,1.49,1.49,0,0,1,.29,1.06v3a1.52,1.52,0,0,1-.29,1.07,1.63,1.63,0,0,1-1.12.28h-4.19a1.64,1.64,0,0,1-1.12-.28,1.52,1.52,0,0,1-.29-1.07Zm1.33,3.27h4.36v-3.6h-4.36Z"/><path class="cls-1" d="M125.24,260.07v-5.69h.91l4,3.35c.14.12.26.22.36.32l.29.3c0-.32,0-.54-.05-.67s0-.24,0-.31v-3h1.19v5.69H131l-4.18-3.51a3.18,3.18,0,0,1-.26-.25,1.45,1.45,0,0,1-.21-.22c0,.18,0,.35,0,.5s0,.29,0,.41v3.07Z"/><path class="cls-1" d="M133.86,260.07l3.22-5.69h1.28l3.26,5.69h-1.49l-.68-1.24h-3.6l-.67,1.24Zm2.55-2.27h2.49l-1.23-2.31Z"/><path class="cls-1" d="M143.57,260.07v-5.69h1.32V259h4.27v1.07Z"/><path class="cls-1" d="M151.16,260.07v-5.69h.9l4,3.35c.14.12.26.22.36.32a4,4,0,0,1,.29.3c0-.32,0-.54,0-.67s0-.24,0-.31v-3h1.18v5.69h-.9l-4.17-3.51a3.45,3.45,0,0,1-.27-.25l-.21-.22c0,.18,0,.35,0,.5s0,.29,0,.41v3.07Z"/><path class="cls-1" d="M160.37,260.07v-5.69h5.83v1h-4.5v1.27h2.62v1H161.7V259h4.55v1.07Z"/><path class="cls-1" d="M176.79,255.38h-3.73v1.22h3.55a1.63,1.63,0,0,1,1.12.28,1.46,1.46,0,0,1,.3,1.06v.78a1.49,1.49,0,0,1-.3,1.07,1.68,1.68,0,0,1-1.12.28h-3.52a1.68,1.68,0,0,1-1.12-.28,1.49,1.49,0,0,1-.3-1.07v-.15l1.17-.24V259h4v-1.3h-3.55a1.6,1.6,0,0,1-1.11-.28,1.46,1.46,0,0,1-.3-1.06v-.63a1.44,1.44,0,0,1,.3-1.06,1.59,1.59,0,0,1,1.11-.29h3.23a1.63,1.63,0,0,1,1.11.28,1.26,1.26,0,0,1,.3,1v.12l-1.16.27Z"/><path class="cls-1" d="M182.49,260.07v-2.55l-3-3.14h1.77l1.95,2.19,2-2.19h1.55l-2.94,3.11v2.58Z"/><path class="cls-1" d="M193.3,255.38h-3.73v1.22h3.55a1.68,1.68,0,0,1,1.13.28,1.51,1.51,0,0,1,.29,1.06v.78a1.54,1.54,0,0,1-.29,1.07,1.73,1.73,0,0,1-1.13.28H189.6a1.68,1.68,0,0,1-1.12-.28,1.49,1.49,0,0,1-.3-1.07v-.15l1.17-.24V259h4v-1.3h-3.54a1.61,1.61,0,0,1-1.12-.28,1.46,1.46,0,0,1-.29-1.06v-.63a1.45,1.45,0,0,1,.29-1.06,1.6,1.6,0,0,1,1.12-.29h3.22a1.63,1.63,0,0,1,1.11.28,1.26,1.26,0,0,1,.3,1v.12l-1.16.27Z"/><path class="cls-1" d="M200.18,255.4v4.67h-1.33V255.4h-2.6v-1h6.55v1Z"/><path class="cls-1" d="M204.63,260.07v-5.69h5.82v1H206v1.27h2.63v1H206V259h4.56v1.07Z"/><path class="cls-1" d="M212.78,260.07v-5.69h1.07l2.68,3.44,2.62-3.44h1.06v5.69H219v-3.51a2.54,2.54,0,0,1,0-.26c0-.11,0-.22,0-.35-.07.15-.14.27-.19.36a1.67,1.67,0,0,1-.15.24l-2.13,2.84h-.26l-2.15-2.86a2.61,2.61,0,0,1-.2-.3c0-.09-.1-.19-.14-.28,0,.12,0,.23,0,.33s0,.19,0,.28v3.51Z"/><path class="cls-1" d="M224.89,260.07v-2.55l-3-3.14h1.77l2,2.19,2-2.19h1.56l-2.95,3.11v2.58Z"/><path class="cls-1" d="M58.55,276.4v-8.22h1.91v3.19h6v-3.19h1.92v8.22H66.43v-3.54h-6v3.54Z"/><path class="cls-1" d="M74.91,276.4v-3.68l-4.27-4.54h2.55L76,271.34l2.83-3.16h2.24l-4.25,4.5v3.72Z"/><path class="cls-1" d="M83.37,276.4v-8.22h5.29a5.16,5.16,0,0,1,3.47,1.06,3.78,3.78,0,0,1,1.22,3,4.51,4.51,0,0,1-.47,2.07,3.68,3.68,0,0,1-1.34,1.45,4.15,4.15,0,0,1-1.33.49,11.35,11.35,0,0,1-2,.15Zm1.91-1.55h2.48a4.8,4.8,0,0,0,2.79-.61,2.37,2.37,0,0,0,.83-2,2.5,2.5,0,0,0-.69-1.91,2.83,2.83,0,0,0-2-.65H85.28Z"/><path class="cls-1" d="M96.28,276.4v-8.22h7a2.19,2.19,0,0,1,1.42.38,1.54,1.54,0,0,1,.44,1.22v1.92a1.55,1.55,0,0,1-.44,1.22,2.19,2.19,0,0,1-1.42.38h-1.07l3.79,3.1h-2.74L100,273.3H98.16v3.1Zm6.17-6.79H98.16v2.28h4.29a1.21,1.21,0,0,0,.68-.14.63.63,0,0,0,.19-.51v-1a.61.61,0,0,0-.19-.5A1.13,1.13,0,0,0,102.45,269.61Z"/><path class="cls-1" d="M108.37,270.13a2.12,2.12,0,0,1,.42-1.53,2.31,2.31,0,0,1,1.61-.42h6a2.32,2.32,0,0,1,1.62.42,2.17,2.17,0,0,1,.41,1.53v4.32a2.19,2.19,0,0,1-.41,1.54,2.38,2.38,0,0,1-1.62.41h-6a2.36,2.36,0,0,1-1.61-.41,2.13,2.13,0,0,1-.42-1.54Zm1.91,4.72h6.3v-5.2h-6.3Z"/><path class="cls-1" d="M121.68,276.4v-8.22h1.92v8.22Z"/><path class="cls-1" d="M126.29,276.4v-.9l5.75-5.85h-5.17v-1.47h8.24V269l-5.82,5.85h5.82v1.55Z"/><path class="cls-1" d="M137.78,270.13a2.12,2.12,0,0,1,.42-1.53,2.32,2.32,0,0,1,1.62-.42h6a2.32,2.32,0,0,1,1.62.42,2.12,2.12,0,0,1,.42,1.53v4.32a2.13,2.13,0,0,1-.42,1.54,2.38,2.38,0,0,1-1.62.41h-6a2.38,2.38,0,0,1-1.62-.41,2.13,2.13,0,0,1-.42-1.54Zm1.91,4.72H146v-5.2h-6.3Z"/><path class="cls-1" d="M151.09,276.4v-8.22H153v6.67h6.16v1.55Z"/><path class="cls-1" d="M160.94,276.4l4.65-8.22h1.84l4.71,8.22H170l-1-1.8H163.8l-1,1.8Zm3.68-3.28h3.6l-1.78-3.34Z"/><path class="cls-1" d="M181.4,269.65h-5.15v5.2h5.15v-1.76l1.91.39v1a2.13,2.13,0,0,1-.42,1.54,2.4,2.4,0,0,1-1.62.41h-4.9a2.35,2.35,0,0,1-1.61-.41,2.13,2.13,0,0,1-.42-1.54v-4.32a2.12,2.12,0,0,1,.42-1.53,2.29,2.29,0,0,1,1.61-.42h4.9a2.34,2.34,0,0,1,1.62.42,2.12,2.12,0,0,1,.42,1.53v.77l-1.91.31Z"/><path class="cls-1" d="M189.47,276.4v-3.68l-4.26-4.54h2.55l2.82,3.16,2.82-3.16h2.25l-4.25,4.5v3.72Z"/><path class="cls-1" d="M197.61,276.4A2.38,2.38,0,0,1,196,276a2.13,2.13,0,0,1-.42-1.54v-1.7l1.93-.36v2.46h3.75v-6.67h1.91v6.27a2.13,2.13,0,0,1-.42,1.54,2.36,2.36,0,0,1-1.61.41Z"/><path class="cls-1" d="M206.28,276.4v-8.22h1.31l5.78,4.85c.2.16.37.31.52.45a4.2,4.2,0,0,1,.41.44c0-.46-.05-.79-.06-1s0-.34,0-.44v-4.32h1.72v8.22h-1.3l-6-5.08-.38-.35c-.11-.1-.21-.21-.31-.32q0,.39.06.72c0,.23,0,.42,0,.59v4.44Z"/><path class="cls-1" d="M219.23,276.4v-8.22h8.41v1.4h-6.5v1.84h3.79v1.4h-3.79v2h6.58v1.55Z"/><path class="cls-1" d="M58.56,239.5V196.93H95q5.07,0,7.35,2t2.27,6.3v9.5c0,2.88-.76,5-2.27,6.27s-4,1.95-7.35,1.95H68.31V239.5Zm32-35.2H68.31v11.28H90.58a5.93,5.93,0,0,0,3.52-.75,3.16,3.16,0,0,0,1-2.63v-4.55a3.12,3.12,0,0,0-1-2.6A5.93,5.93,0,0,0,90.58,204.3Z"/><path class="cls-1" d="M152.88,204.38H125v9.15h26.54q6.24,0,8.44,2.13c1.46,1.42,2.19,4.07,2.19,7.93v5.84c0,3.87-.73,6.51-2.19,7.94s-4.28,2.13-8.44,2.13h-26.3q-6.24,0-8.44-2.13c-1.46-1.43-2.19-4.07-2.19-7.94v-1.16l8.74-1.82v5h30.08v-9.71H126.9q-6.2,0-8.37-2.13c-1.45-1.43-2.18-4.07-2.18-7.94V207q0-5.81,2.18-7.93t8.37-2.14h24.17q6,0,8.27,2.06t2.28,7.29v.88l-8.74,2.06Z"/><path class="cls-1" d="M176.22,239.5V196.93h9.91v16.51h30.93V196.93h10V239.5h-10V221.18H186.13V239.5Z"/><path class="cls-1" d="M240.68,175h-27a2.07,2.07,0,0,1-2.06-2.06V82.19L168,71.37V172.94A2.06,2.06,0,0,1,165.9,175H148.76a2.07,2.07,0,0,1-2.06-2.06V64.5a2.05,2.05,0,0,1,2.56-2l14.58,3.61V26.25L102.58,52.37V112.5l17.58-7.44A2.06,2.06,0,0,1,123,107v66A2.06,2.06,0,0,1,121,175H100.52a2.07,2.07,0,0,1-2.06-2.06V118.71L71.83,130v43A2.07,2.07,0,0,1,69.77,175h-27v-4.12H67.71V128.62a2.06,2.06,0,0,1,1.25-1.9l29.5-12.48V51a2.08,2.08,0,0,1,1.26-1.9l65.37-27.87A2.05,2.05,0,0,1,168,23.13v44L214.2,78.57a2.06,2.06,0,0,1,1.56,2v90.31h24.92Zm-89.86-4.12h13V70.35l-13-3.22Zm-48.24,0H118.9V110.07L102.58,117Z"/><path class="cls-1" d="M249.79,5.42a8.06,8.06,0,0,1,3.06.59,7.64,7.64,0,0,1,2.56,1.75,7.93,7.93,0,0,1,1.22,1.61,7.27,7.27,0,0,1,.79,1.92,7.72,7.72,0,0,1,.27,2,7.83,7.83,0,0,1-.59,3,7.43,7.43,0,0,1-1.71,2.51,9.06,9.06,0,0,1-1.69,1.28,8,8,0,0,1-1.92.79,7.65,7.65,0,0,1-5-.32,8.08,8.08,0,0,1-2.59-1.77,7.59,7.59,0,0,1-2.3-5.52,7.35,7.35,0,0,1,.16-1.55,7.74,7.74,0,0,1,.45-1.46,9.28,9.28,0,0,1,.75-1.37,8.78,8.78,0,0,1,1-1.26A7.24,7.24,0,0,1,246.79,6,7.85,7.85,0,0,1,249.79,5.42Zm6.85,7.94a7.38,7.38,0,0,0-.23-1.82,6.92,6.92,0,0,0-.66-1.67,6.24,6.24,0,0,0-1.06-1.39A6.51,6.51,0,0,0,252.49,7a7,7,0,0,0-5.29,0A6,6,0,0,0,245,8.39a7.35,7.35,0,0,0-1.55,2.3,6.59,6.59,0,0,0,0,5.18,7,7,0,0,0,3.72,3.73,6.34,6.34,0,0,0,2.55.53,6.86,6.86,0,0,0,3.47-.92,7,7,0,0,0,1.44-1.09,6.46,6.46,0,0,0,2-4.76ZM250,8.68q3.74,0,3.73,2.45a2.36,2.36,0,0,1-.54,1.59,2.7,2.7,0,0,1-1.5.82l2,4.07H251.8L250,13.8h-1.66v3.81h-1.69V8.68Zm-.3,1.09h-1.38v3h1.42A5,5,0,0,0,251,12.6a1.46,1.46,0,0,0,.74-.45,1.35,1.35,0,0,0,.24-.84,1.3,1.3,0,0,0-.56-1.18A3.27,3.27,0,0,0,249.7,9.77Z"/></g></g></svg>