<?xml version="1.0" encoding="utf-8"?>
<!-- Generator: Adobe Illustrator 25.3.0, SVG Export Plug-In . SVG Version: 6.00 Build 0)  -->
<svg version="1.1" id="Layer_1" xmlns="http://www.w3.org/2000/svg" xmlns:xlink="http://www.w3.org/1999/xlink" x="0px" y="0px"
	 viewBox="0 0 283.5 283.5" style="enable-background:new 0 0 283.5 283.5;" xml:space="preserve">
<style type="text/css">
	.st0{display:none;fill:none;}
	.st1{fill:#FFFFFF;}
</style>
<g id="Layer_2_1_">
	<rect y="0" class="st0" width="283.5" height="283.5"/>
	<g id="Warstwa_1">
		<path class="st1" d="M57.8,260.1v-5.7h4.9c0.4,0,0.7,0.1,1,0.3c0.2,0.2,0.3,0.5,0.3,0.9v1.3c0,0.3-0.1,0.6-0.3,0.8
			c-0.3,0.2-0.6,0.3-1,0.3h-3.6v2.2L57.8,260.1L57.8,260.1z M62.1,255.4h-3v1.5h3c0.2,0,0.3,0,0.5-0.1c0.1-0.1,0.1-0.2,0.1-0.4v-0.6
			c0-0.1,0-0.3-0.1-0.3C62.4,255.4,62.2,255.4,62.1,255.4L62.1,255.4z"/>
		<path class="st1" d="M66,260.1v-5.7h4.9c0.4,0,0.7,0.1,1,0.3c0.2,0.2,0.3,0.5,0.3,0.9v1.3c0,0.3-0.1,0.6-0.3,0.8
			c-0.3,0.2-0.6,0.3-1,0.3h-0.8l2.6,2.1h-1.9l-2.3-2.1h-1.3v2.1L66,260.1L66,260.1z M70.3,255.4h-3v1.6h3c0.2,0,0.3,0,0.5-0.1
			c0.1-0.1,0.1-0.2,0.1-0.4v-0.7c0-0.1,0-0.3-0.1-0.3C70.6,255.4,70.4,255.4,70.3,255.4L70.3,255.4z"/>
		<path class="st1" d="M74.6,255.7c0-0.4,0.1-0.8,0.3-1.1c0.3-0.2,0.7-0.3,1.1-0.3h4.2c0.4,0,0.8,0.1,1.1,0.3
			c0.2,0.3,0.3,0.7,0.3,1.1v3c0,0.4-0.1,0.8-0.3,1.1c-0.3,0.2-0.7,0.3-1.1,0.3H76c-0.4,0-0.8-0.1-1.1-0.3c-0.2-0.3-0.3-0.7-0.3-1.1
			V255.7z M75.9,259h4.4v-3.6h-4.4V259z"/>
		<path class="st1" d="M84.1,260.1v-5.7h5.8v1h-4.4v1.5h2.4v1h-2.4v2.2L84.1,260.1z"/>
		<path class="st1" d="M91.7,260.1v-5.7h5.8v1H93v1.3h2.6v1H93v1.4h4.6v1.1h-5.9V260.1z"/>
		<path class="st1" d="M104.8,255.4h-3.7v1.2h3.6c0.4,0,0.8,0.1,1.1,0.3c0.2,0.3,0.3,0.7,0.3,1.1v0.8c0,0.4-0.1,0.8-0.3,1.1
			c-0.3,0.2-0.7,0.3-1.1,0.3h-3.5c-0.4,0-0.8-0.1-1.1-0.3c-0.2-0.3-0.3-0.7-0.3-1.1v-0.1l1.2-0.2v0.7h4v-1.3h-3.6
			c-0.4,0-0.8-0.1-1.1-0.3c-0.2-0.3-0.3-0.7-0.3-1.1v-0.6c0-0.4,0.1-0.8,0.3-1.1c0.3-0.2,0.7-0.3,1.1-0.3h3.2c0.4,0,0.8,0.1,1.1,0.3
			c0.2,0.3,0.3,0.6,0.3,1v0.1l-1.2,0.3V255.4z"/>
		<path class="st1" d="M109.6,260.1c-0.4,0-0.8-0.1-1.1-0.3c-0.2-0.3-0.3-0.7-0.3-1.1v-1.2l1.3-0.3v1.7h2.6v-4.6h1.3v4.3
			c0,0.4-0.1,0.8-0.3,1.1c-0.3,0.2-0.7,0.3-1.1,0.3h-2.4V260.1z"/>
		<path class="st1" d="M115.8,255.7c0-0.4,0.1-0.8,0.3-1.1c0.3-0.2,0.7-0.3,1.1-0.3h4.2c0.4,0,0.8,0.1,1.1,0.3
			c0.2,0.3,0.3,0.7,0.3,1.1v3c0,0.4-0.1,0.8-0.3,1.1c-0.3,0.2-0.7,0.3-1.1,0.3h-4.2c-0.4,0-0.8-0.1-1.1-0.3
			c-0.2-0.3-0.3-0.7-0.3-1.1V255.7z M117.1,259h4.4v-3.6h-4.4V259z"/>
		<path class="st1" d="M125.2,260.1v-5.7h0.9l4,3.4c0.1,0.1,0.3,0.2,0.4,0.3l0.3,0.3c0-0.3,0-0.5-0.1-0.7s0-0.2,0-0.3v-3h1.2v5.7
			H131l-4.2-3.5c-0.1-0.1-0.2-0.2-0.3-0.2c-0.1-0.1-0.1-0.1-0.2-0.2c0,0.2,0,0.4,0,0.5s0,0.3,0,0.4v3.1L125.2,260.1z"/>
		<path class="st1" d="M133.9,260.1l3.2-5.7h1.3l3.3,5.7h-1.5l-0.7-1.2h-3.6l-0.7,1.2H133.9z M136.4,257.8h2.5l-1.2-2.3L136.4,257.8
			z"/>
		<path class="st1" d="M143.6,260.1v-5.7h1.3v4.6h4.3v1.1H143.6z"/>
		<path class="st1" d="M151.2,260.1v-5.7h0.9l4,3.4c0.1,0.1,0.3,0.2,0.4,0.3c0.1,0.1,0.2,0.2,0.3,0.3c0-0.3,0-0.5,0-0.7s0-0.2,0-0.3
			v-3h1.2v5.7h-1l-4.2-3.5c-0.1-0.1-0.2-0.2-0.3-0.2l-0.2-0.2c0,0.2,0,0.4,0,0.5s0,0.3,0,0.4v3.1L151.2,260.1z"/>
		<path class="st1" d="M160.4,260.1v-5.7h5.8v1h-4.5v1.3h2.6v1h-2.6v1.4h4.6v1.1h-5.9V260.1z"/>
		<path class="st1" d="M176.8,255.4h-3.7v1.2h3.6c0.4,0,0.8,0.1,1.1,0.3c0.2,0.3,0.3,0.7,0.3,1.1v0.8c0,0.4-0.1,0.8-0.3,1.1
			c-0.3,0.2-0.7,0.3-1.1,0.3h-3.5c-0.4,0-0.8-0.1-1.1-0.3c-0.2-0.3-0.3-0.7-0.3-1.1v-0.1l1.2-0.2v0.7h4v-1.3h-3.6
			c-0.4,0-0.8-0.1-1.1-0.3c-0.2-0.3-0.3-0.7-0.3-1.1v-0.6c0-0.4,0.1-0.8,0.3-1.1c0.3-0.2,0.7-0.3,1.1-0.3h3.2c0.4,0,0.8,0.1,1.1,0.3
			c0.2,0.3,0.3,0.6,0.3,1v0.1l-1.2,0.3V255.4z"/>
		<path class="st1" d="M182.5,260.1v-2.5l-3-3.1h1.8l1.9,2.2l2-2.2h1.6l-2.9,3.1v2.6L182.5,260.1z"/>
		<path class="st1" d="M193.3,255.4h-3.7v1.2h3.6c0.4,0,0.8,0.1,1.1,0.3c0.2,0.3,0.3,0.7,0.3,1.1v0.8c0,0.4-0.1,0.8-0.3,1.1
			c-0.3,0.2-0.7,0.3-1.1,0.3h-3.5c-0.4,0-0.8-0.1-1.1-0.3c-0.2-0.3-0.3-0.7-0.3-1.1v-0.1l1.2-0.2v0.7h4v-1.3H190
			c-0.4,0-0.8-0.1-1.1-0.3c-0.2-0.3-0.3-0.7-0.3-1.1v-0.6c0-0.4,0.1-0.8,0.3-1.1c0.3-0.2,0.7-0.3,1.1-0.3h3.2c0.4,0,0.8,0.1,1.1,0.3
			c0.2,0.3,0.3,0.6,0.3,1v0.1l-1.2,0.3L193.3,255.4z"/>
		<path class="st1" d="M200.2,255.4v4.7h-1.3v-4.7h-2.6v-1h6.6v1L200.2,255.4L200.2,255.4z"/>
		<path class="st1" d="M204.6,260.1v-5.7h5.8v1H206v1.3h2.6v1H206v1.4h4.6v1.1h-6V260.1z"/>
		<path class="st1" d="M212.8,260.1v-5.7h1.1l2.7,3.4l2.6-3.4h1.1v5.7H219v-3.5c0-0.1,0-0.2,0-0.3c0-0.1,0-0.2,0-0.4
			c-0.1,0.1-0.1,0.3-0.2,0.4c0,0.1-0.1,0.2-0.1,0.2l-2.1,2.8h-0.3l-2.1-2.9c-0.1-0.1-0.1-0.2-0.2-0.3c0-0.1-0.1-0.2-0.1-0.3
			c0,0.1,0,0.2,0,0.3s0,0.2,0,0.3v3.5L212.8,260.1z"/>
		<path class="st1" d="M224.9,260.1v-2.5l-3-3.1h1.8l2,2.2l2-2.2h1.6l-2.9,3.1v2.6L224.9,260.1z"/>
		<path class="st1" d="M58.5,276.4v-8.2h1.9v3.2h6v-3.2h1.9v8.2h-1.9v-3.5h-6v3.5H58.5z"/>
		<path class="st1" d="M74.9,276.4v-3.7l-4.3-4.5h2.6l2.8,3.2l2.8-3.2H81l-4.2,4.5v3.7H74.9z"/>
		<path class="st1" d="M83.4,276.4v-8.2h5.3c1.2-0.1,2.5,0.3,3.5,1.1c0.8,0.8,1.3,1.9,1.2,3c0,0.7-0.2,1.4-0.5,2.1
			c-0.3,0.6-0.8,1.1-1.3,1.5c-0.4,0.2-0.9,0.4-1.3,0.5c-0.7,0.1-1.3,0.2-2,0.1h-4.9V276.4z M85.3,274.9h2.5c1,0.1,1.9-0.1,2.8-0.6
			c0.6-0.5,0.9-1.2,0.8-2c0.1-0.7-0.2-1.4-0.7-1.9c-0.6-0.5-1.3-0.7-2-0.6h-3.4L85.3,274.9z"/>
		<path class="st1" d="M96.3,276.4v-8.2h7c0.5,0,1,0.1,1.4,0.4c0.3,0.3,0.5,0.8,0.4,1.2v1.9c0,0.5-0.1,0.9-0.4,1.2
			c-0.4,0.3-0.9,0.4-1.4,0.4h-1.1l3.8,3.1h-2.7l-3.3-3.1h-1.8v3.1H96.3z M102.4,269.6h-4.3v2.3h4.3c0.2,0,0.5,0,0.7-0.1
			c0.1-0.1,0.2-0.3,0.2-0.5v-1c0-0.2-0.1-0.4-0.2-0.5C102.9,269.6,102.7,269.6,102.4,269.6z"/>
		<path class="st1" d="M108.4,270.1c-0.1-0.5,0.1-1.1,0.4-1.5c0.5-0.3,1-0.5,1.6-0.4h6c0.6-0.1,1.2,0.1,1.6,0.4
			c0.3,0.4,0.5,1,0.4,1.5v4.3c0.1,0.5-0.1,1.1-0.4,1.5c-0.5,0.3-1,0.5-1.6,0.4h-6c-0.6,0.1-1.1-0.1-1.6-0.4c-0.3-0.4-0.5-1-0.4-1.5
			V270.1z M110.3,274.9h6.3v-5.2h-6.3V274.9z"/>
		<path class="st1" d="M121.7,276.4v-8.2h1.9v8.2H121.7z"/>
		<path class="st1" d="M126.3,276.4v-0.9l5.8-5.9h-5.2v-1.5h8.2v0.8l-5.8,5.9h5.8v1.5h-8.8V276.4z"/>
		<path class="st1" d="M137.8,270.1c-0.1-0.5,0.1-1.1,0.4-1.5c0.5-0.3,1-0.5,1.6-0.4h6c0.6-0.1,1.2,0.1,1.6,0.4
			c0.3,0.4,0.5,1,0.4,1.5v4.3c0.1,0.5-0.1,1.1-0.4,1.5c-0.5,0.3-1,0.5-1.6,0.4h-6c-0.6,0.1-1.1-0.1-1.6-0.4c-0.3-0.4-0.5-1-0.4-1.5
			V270.1z M139.7,274.9h6.3v-5.2h-6.3V274.9z"/>
		<path class="st1" d="M151.1,276.4v-8.2h1.9v6.7h6.2v1.5H151.1z"/>
		<path class="st1" d="M160.9,276.4l4.6-8.2h1.8l4.7,8.2h-2l-1-1.8h-5.2l-1,1.8H160.9z M164.6,273.1h3.6l-1.8-3.3L164.6,273.1z"/>
		<path class="st1" d="M181.4,269.6h-5.1v5.2h5.1V273l1.9,0.4v1c0.1,0.5-0.1,1.1-0.4,1.5c-0.5,0.3-1,0.5-1.6,0.4h-4.9
			c-0.6,0.1-1.1-0.1-1.6-0.4c-0.3-0.4-0.5-1-0.4-1.5v-4.3c-0.1-0.5,0.1-1.1,0.4-1.5c0.5-0.3,1-0.5,1.6-0.4h4.9
			c0.6-0.1,1.2,0.1,1.6,0.4c0.3,0.4,0.5,1,0.4,1.5v0.8l-1.9,0.3V269.6z"/>
		<path class="st1" d="M189.5,276.4v-3.7l-4.3-4.5h2.6l2.8,3.2l2.8-3.2h2.2l-4.2,4.5v3.7H189.5z"/>
		<path class="st1" d="M197.6,276.4c-0.6,0.1-1.1-0.1-1.6-0.4c-0.3-0.4-0.5-1-0.4-1.5v-1.7l1.9-0.4v2.5h3.8v-6.7h1.9v6.3
			c0.1,0.5-0.1,1.1-0.4,1.5c-0.5,0.3-1,0.5-1.6,0.4L197.6,276.4z"/>
		<path class="st1" d="M206.3,276.4v-8.2h1.3l5.8,4.9c0.2,0.2,0.4,0.3,0.5,0.5c0.1,0.1,0.3,0.3,0.4,0.4c0-0.5-0.1-0.8-0.1-1
			s0-0.3,0-0.4v-4.3h1.7v8.2h-1.3l-6-5.1l-0.4-0.4c-0.1-0.1-0.2-0.2-0.3-0.3c0,0.3,0,0.5,0.1,0.7c0,0.2,0,0.4,0,0.6v4.4L206.3,276.4
			z"/>
		<path class="st1" d="M219.2,276.4v-8.2h8.4v1.4h-6.5v1.8h3.8v1.4h-3.8v2h6.6v1.5L219.2,276.4z"/>
		<path class="st1" d="M58.6,239.5v-42.6H95c3.4,0,5.8,0.7,7.3,2s2.3,3.4,2.3,6.3v9.5c0,2.9-0.8,5-2.3,6.3s-4,1.9-7.3,1.9H68.3v16.6
			H58.6z M90.6,204.3H68.3v11.3h22.3c1.2,0.1,2.5-0.1,3.5-0.8c0.7-0.7,1.1-1.6,1-2.6v-4.6c0.1-1-0.3-1.9-1-2.6
			C93,204.4,91.8,204.2,90.6,204.3L90.6,204.3z"/>
		<path class="st1" d="M152.9,204.4H125v9.1h26.5c4.2,0,7,0.7,8.4,2.1c1.5,1.4,2.2,4.1,2.2,7.9v5.8c0,3.9-0.7,6.5-2.2,7.9
			s-4.3,2.1-8.4,2.1h-26.3c-4.2,0-7-0.7-8.4-2.1c-1.5-1.4-2.2-4.1-2.2-7.9v-1.2l8.7-1.8v5h30.1v-9.7h-26.5c-4.1,0-6.9-0.7-8.4-2.1
			c-1.4-1.4-2.2-4.1-2.2-7.9V207c0-3.9,0.7-6.5,2.2-7.9s4.2-2.1,8.4-2.1h24.2c4,0,6.8,0.7,8.3,2.1c1.5,1.4,2.3,3.8,2.3,7.3v0.9
			l-8.7,2.1v-5H152.9z"/>
		<path class="st1" d="M176.2,239.5v-42.6h9.9v16.5H217v-16.5h10v42.6h-10v-18.3h-30.9v18.3H176.2z"/>
		<path class="st1" d="M240.7,175h-27c-1.1,0-2.1-0.9-2.1-2.1V82.2L168,71.4V173c0,1.1-0.9,2.1-2.1,2.1l0,0h-17.1
			c-1.1,0-2.1-0.9-2.1-2.1V64.5c0-1.1,0.9-2.1,2-2.1c0.2,0,0.4,0,0.5,0.1l14.6,3.6V26.2l-61.3,26.1v60.1l17.6-7.4
			c1.1-0.4,2.3,0.1,2.7,1.1c0.1,0.3,0.2,0.5,0.2,0.8v66c0,1.1-0.9,2-2,2h-20.5c-1.1,0-2.1-0.9-2.1-2.1v-54.2L71.8,130v43
			c0,1.1-0.9,2-2.1,2h-27v-4.1h24.9v-42.3c0-0.8,0.5-1.6,1.2-1.9l29.5-12.5V51c0-0.8,0.5-1.6,1.3-1.9L165,21.2c1-0.5,2.2,0,2.7,1
			c0.1,0.3,0.2,0.6,0.2,0.9v44l46.2,11.4c0.9,0.2,1.6,1.1,1.6,2v90.3h24.9v4.2H240.7z M150.8,170.9h13V70.3l-13-3.2V170.9z
			 M102.6,170.9h16.3v-60.8l-16.3,6.9L102.6,170.9z"/>
		<path class="st1" d="M249.8,5.4c1,0,2.1,0.2,3.1,0.6s1.8,1,2.6,1.8c0.5,0.5,0.9,1,1.2,1.6c0.4,0.6,0.6,1.2,0.8,1.9
			c0.2,0.7,0.3,1.3,0.3,2c0,1-0.2,2-0.6,3c-0.4,0.9-1,1.8-1.7,2.5c-0.5,0.5-1.1,0.9-1.7,1.3c-0.6,0.3-1.2,0.6-1.9,0.8
			c-1.7,0.5-3.4,0.3-5-0.3c-1-0.4-1.9-1-2.6-1.8c-1.5-1.4-2.3-3.4-2.3-5.5c0-0.5,0.1-1,0.2-1.6c0.1-0.5,0.3-1,0.4-1.5
			c0.2-0.5,0.5-0.9,0.8-1.4c0.3-0.4,0.6-0.9,1-1.3c0.7-0.7,1.6-1.3,2.5-1.6C247.7,5.6,248.8,5.4,249.8,5.4z M256.6,13.4
			c0-0.6-0.1-1.2-0.2-1.8s-0.4-1.1-0.7-1.7c-0.3-0.5-0.6-1-1.1-1.4c-0.6-0.6-1.4-1.1-2.2-1.5c-1.7-0.7-3.6-0.7-5.3,0
			c-0.8,0.3-1.6,0.8-2.2,1.4c-0.7,0.7-1.2,1.4-1.6,2.3c-0.7,1.7-0.7,3.5,0,5.2s2,3,3.7,3.7c0.8,0.4,1.7,0.5,2.6,0.5
			c1.2,0,2.4-0.3,3.5-0.9c0.5-0.3,1-0.7,1.4-1.1C255.9,16.9,256.7,15.2,256.6,13.4L256.6,13.4z M250,8.7c2.5,0,3.7,0.8,3.7,2.4
			c0,0.6-0.2,1.1-0.5,1.6c-0.4,0.4-0.9,0.7-1.5,0.8l2,4.1h-1.9l-1.8-3.8h-1.7v3.8h-1.7V8.7H250z M249.7,9.8h-1.4v3h1.4
			c0.4,0,0.8-0.1,1.3-0.2c0.3-0.1,0.5-0.2,0.7-0.4s0.3-0.5,0.2-0.8c0-0.5-0.2-0.9-0.6-1.2C250.9,9.9,250.3,9.7,249.7,9.8z"/>
	</g>
</g>
</svg>
